<svg xmlns="http://www.w3.org/2000/svg" viewBox="0 0 861.5 405.47"><defs><style>.cls-1{fill:#fff;}</style></defs><g id="Layer_2" data-name="Layer 2"><g id="Capa_1" data-name="Capa 1"><path class="cls-1" d="M841.9,64.51a61.12,61.12,0,0,0-86.31-2.78A51.86,51.86,0,0,0,753.22,135a44.55,44.55,0,0,0,62.88,2,15,15,0,0,0-20.52-21.89,14.49,14.49,0,0,1-20.47-.66,21.85,21.85,0,0,1,1-30.89A31.1,31.1,0,0,1,820,85a42.63,42.63,0,0,1-1.94,60.19,57,57,0,0,1-80.54-2.6,15,15,0,0,0-2.4-2.06A523,523,0,0,0,8,153.33L4.39,157a15,15,0,0,0,21.22,21.22l3.63-3.64A491.68,491.68,0,0,1,357.46,30.43a14.77,14.77,0,0,0,4.77.79c71.81,0,130.24,58.43,130.24,130.25A101.31,101.31,0,0,1,391.28,262.66a78,78,0,0,1-78-78,59.43,59.43,0,0,1,59.36-59.36,44.29,44.29,0,0,1,28.14,10,38.17,38.17,0,1,0,46.29,37.3c0-.4,0-.8,0-1.2a15.1,15.1,0,0,0,.1-1.66,74.58,74.58,0,0,0-74.5-74.49,89.47,89.47,0,0,0-89.36,89.36,108.08,108.08,0,0,0,108,108c72.34,0,131.19-58.85,131.19-131.19a160,160,0,0,0-59-124.13A491.5,491.5,0,0,1,720,167.57a491.1,491.1,0,0,1-134.34,92,491.91,491.91,0,0,1-160.84,43.4C312.44,313.55,199,285.19,105.54,223.09A15,15,0,0,0,86,245.48l-31.73,47a9.85,9.85,0,0,0,2.65,13.68l.17.11a9.85,9.85,0,0,0,13.68-2.65l31.66-46.92A519.48,519.48,0,0,0,150.2,283l-25,51.94A9.84,9.84,0,0,0,129.83,348l.18.09a9.85,9.85,0,0,0,13.15-4.61l25.14-52.26a522.35,522.35,0,0,0,50.86,19.13l-17.57,56.17a9.86,9.86,0,0,0,6.46,12.35l.19.06a9.86,9.86,0,0,0,12.35-6.47l17.66-56.45a523.38,523.38,0,0,0,52.88,11.74l-9.46,59.07a9.85,9.85,0,0,0,8.17,11.29l.2,0A9.85,9.85,0,0,0,301.33,390l9.5-59.28a524.1,524.1,0,0,0,53.92,4.18l-.92,60.56a9.86,9.86,0,0,0,9.71,10h.2a9.85,9.85,0,0,0,10-9.7l.92-60.69q21.49-.25,43-2.28,5.44-.51,10.86-1.14l7.82,60.56a9.87,9.87,0,0,0,11,8.52l.2,0a9.85,9.85,0,0,0,8.51-11L458.28,329a522.3,522.3,0,0,0,52.79-10.92l16.52,59.09A9.85,9.85,0,0,0,539.73,384l.19,0a9.85,9.85,0,0,0,6.84-12.14l-16.52-59.14a522.71,522.71,0,0,0,50.69-18.26l24.92,56.17a9.85,9.85,0,0,0,13,5l.19-.08a9.87,9.87,0,0,0,5-13l-24.91-56.15a520.4,520.4,0,0,0,47.63-25.25l32.7,51.82A9.86,9.86,0,0,0,693.06,316l.17-.11a9.86,9.86,0,0,0,3.08-13.59l-32.66-51.75a522.72,522.72,0,0,0,43.6-31.77l39.57,46.27a9.86,9.86,0,0,0,13.9,1.09l.15-.13a9.86,9.86,0,0,0,1.08-13.9L722.49,206q12-10.54,23.52-21.86a86.78,86.78,0,0,0,30.29,6.47c1,0,1.92,0,2.88,0a86.32,86.32,0,0,0,59.41-23.53A72.65,72.65,0,0,0,841.9,64.51Z"/></g></g></svg>