<svg xmlns="http://www.w3.org/2000/svg" viewBox="0 0 776.7 386.61"><defs><style>.cls-1{fill:#fff;}</style></defs><g id="Layer_2" data-name="Layer 2"><g id="Capa_1" data-name="Capa 1"><circle class="cls-1" cx="533.9" cy="301.62" r="21.95"/><circle class="cls-1" cx="589.6" cy="286.41" r="14.29" transform="translate(-29.84 500.8) rotate(-45)"/><path class="cls-1" d="M773.48,151.23l-.15-.14a9.85,9.85,0,0,0-13.92.67l-29.07,32a525.79,525.79,0,0,0-44.19-35.32L710.06,113a9.85,9.85,0,0,0-2.65-13.68l-.17-.11a9.85,9.85,0,0,0-13.68,2.66l-23.83,35.31a516.45,516.45,0,0,0-49-28.48l18.32-38.1a9.85,9.85,0,0,0-4.61-13.15l-.18-.09A9.85,9.85,0,0,0,621.16,62l-18.29,38q-11.54-5.35-23.39-10.16Q565,83.93,550.21,78.94l12.52-40a9.84,9.84,0,0,0-6.46-12.34l-.19-.06A9.84,9.84,0,0,0,543.73,33l-12.5,40a521,521,0,0,0-55.18-13.11l6.6-41.2a9.85,9.85,0,0,0-8.18-11.29l-.19,0A9.85,9.85,0,0,0,463,15.46l-6.6,41.19a523.62,523.62,0,0,0-56.54-4.88L400.48,10a9.85,9.85,0,0,0-9.7-10h-.2a9.85,9.85,0,0,0-10,9.71L380,51.49a527.41,527.41,0,0,0-56.63,3.3L318,13.25a9.85,9.85,0,0,0-11-8.51l-.2,0a9.85,9.85,0,0,0-8.51,11l5.37,41.59a519,519,0,0,0-55.5,11.52L236.73,28.29a9.86,9.86,0,0,0-12.14-6.84l-.19.05a9.86,9.86,0,0,0-6.84,12.15l11.38,40.73q-22,6.74-43.43,15.43c-3.26,1.32-6.51,2.69-9.74,4.07l-17.3-39a9.86,9.86,0,0,0-13-5l-.19.08a9.86,9.86,0,0,0-5,13l17.36,39.13a519.24,519.24,0,0,0-49.71,27L84.85,92.54a9.85,9.85,0,0,0-13.59-3.08l-.17.11A9.85,9.85,0,0,0,68,103.16l23.17,36.71a521.75,521.75,0,0,0-45.1,34L17.5,140.41a9.87,9.87,0,0,0-13.9-1.09l-.15.13a9.87,9.87,0,0,0-1.09,13.9l28.73,33.58q-9.57,8.69-18.76,17.88L8.7,208.44a15,15,0,0,0,0,21.21l3.63,3.63a520.24,520.24,0,0,0,173.18,115,521.68,521.68,0,0,0,197,38.33,521.63,521.63,0,0,0,197-38.33,520.28,520.28,0,0,0,173.19-115l3.63-3.63a15,15,0,0,0,0-21.21l-3.63-3.63q-3.82-3.83-7.72-7.55l29.19-32.11A9.86,9.86,0,0,0,773.48,151.23ZM568.21,320.48a490.86,490.86,0,0,1-121.58,32,117.42,117.42,0,0,0,21.24-17.83A30.89,30.89,0,1,1,488.18,305a117.1,117.1,0,1,0-169.83,47.49,490.71,490.71,0,0,1-121.56-32A488.54,488.54,0,0,1,66.65,242.36a493.62,493.62,0,0,1,631.7,0A488.7,488.7,0,0,1,568.21,320.48ZM721,222.22a523.57,523.57,0,0,0-677,0q-1.68-1.58-3.35-3.18a493.06,493.06,0,0,1,683.69,0Q722.68,220.65,721,222.22Z"/></g></g></svg>