<svg xmlns="http://www.w3.org/2000/svg" viewBox="0 0 756.39 393.69"><defs><style>.cls-1{fill:#fff;}</style></defs><g id="Layer_2" data-name="Layer 2"><g id="Capa_1" data-name="Capa 1"><path class="cls-1" d="M198,232.19A180.16,180.16,0,0,1,298.28,70.69,521.83,521.83,0,0,0,8,218l-3.63,3.63a15,15,0,0,0,0,21.22L8,246.43a520,520,0,0,0,173.18,115,520.44,520.44,0,0,0,117.07,32.27A180.16,180.16,0,0,1,198,232.19Z"/><path class="cls-1" d="M752,221.58,748.37,218A521.83,521.83,0,0,0,458.11,70.69a180.21,180.21,0,0,1,0,323,520.29,520.29,0,0,0,117.07-32.27,520.1,520.1,0,0,0,173.19-115L752,242.8A15,15,0,0,0,752,221.58Z"/><path class="cls-1" d="M508.56,232.19A130.39,130.39,0,0,0,316,117.62L388.08,239.8s-79.69-38.73-128.37-62.05a130.38,130.38,0,1,0,248.85,54.44Z"/><path class="cls-1" d="M20.82,147.34a16.25,16.25,0,0,0,22.27,2.07l.25-.2a14.84,14.84,0,0,0,2.14-21.44l-2.14-2.5a16.23,16.23,0,0,0-22.26-2.07l-.25.2a14.85,14.85,0,0,0-2.15,21.44Z"/><path class="cls-1" d="M81.82,102.85a16.17,16.17,0,0,0,21.74,5.06l.28-.16a14.91,14.91,0,0,0,5.25-20.94L107.34,84A16.19,16.19,0,0,0,85.59,79l-.27.16a14.92,14.92,0,0,0-5.26,20.94Z"/><path class="cls-1" d="M148.7,67.09a16.06,16.06,0,0,0,20.79,8l.29-.12a15,15,0,0,0,8.28-20l-1.33-3A16.05,16.05,0,0,0,156,44l-.3.12a15,15,0,0,0-8.28,20Z"/><path class="cls-1" d="M220.15,40.78c2.29,8.12,11,12.91,19.41,10.71l.31-.08A15.18,15.18,0,0,0,251,32.72l-.88-3.13c-2.29-8.11-11-12.91-19.41-10.7l-.31.08a15.17,15.17,0,0,0-11.12,18.69Z"/><path class="cls-1" d="M294.73,24.41c1.09,8.34,9,14.26,17.66,13.22l.32,0c8.67-1.05,14.82-8.67,13.73-17L326,17.37C324.93,9,317,3.1,308.36,4.15l-.32,0c-8.67,1-14.82,8.66-13.73,17Z"/><path class="cls-1" d="M386.55,33.69h.32c8.73.13,15.92-6.59,16.05-15l.05-3.23C403.11,7.06,396.14.13,387.4,0h-.32C378.34-.13,371.16,6.59,371,15l0,3.23C370.84,26.64,377.81,33.57,386.55,33.69Z"/><path class="cls-1" d="M460.52,39.75l.32,0c8.63,1.3,16.72-4.38,18.07-12.69l.52-3.2a15.31,15.31,0,0,0-13.18-17.4l-.32,0c-8.63-1.3-16.72,4.38-18.07,12.69l-.52,3.2A15.31,15.31,0,0,0,460.52,39.75Z"/><path class="cls-1" d="M532.88,55.71l.31.09a15.93,15.93,0,0,0,19.74-10.13l1-3.09a15.15,15.15,0,0,0-10.52-19l-.31-.09a15.93,15.93,0,0,0-19.74,10.13l-1,3.09A15.13,15.13,0,0,0,532.88,55.71Z"/><path class="cls-1" d="M602.21,81.31l.3.13a16.07,16.07,0,0,0,21-7.34L625,71.17a15,15,0,0,0-7.63-20.25l-.29-.13a16.07,16.07,0,0,0-21,7.34l-1.43,2.93A15,15,0,0,0,602.21,81.31Z"/><path class="cls-1" d="M667.08,116.08l.27.17a16.2,16.2,0,0,0,21.9-4.42l1.84-2.71A14.89,14.89,0,0,0,686.51,88l-.27-.17a16.2,16.2,0,0,0-21.9,4.41L662.5,95A14.89,14.89,0,0,0,667.08,116.08Z"/><path class="cls-1" d="M726.21,159.29l.24.2a16.23,16.23,0,0,0,22.32-1.41l2.22-2.43a14.85,14.85,0,0,0-1.47-21.5l-.24-.2A16.24,16.24,0,0,0,727,135.36l-2.22,2.44A14.83,14.83,0,0,0,726.21,159.29Z"/></g></g></svg>