<svg xmlns="http://www.w3.org/2000/svg" viewBox="0 0 756.39 392.32"><defs><style>.cls-1{fill:#fff;}</style></defs><g id="Layer_2" data-name="Layer 2"><g id="Capa_1" data-name="Capa 1"><path class="cls-1" d="M752,214.15l-3.63-3.63A521.78,521.78,0,0,0,378.2,57.19h0A521.89,521.89,0,0,0,8,210.52l-3.63,3.63a15,15,0,0,0,0,21.21L8,239A520.14,520.14,0,0,0,181.21,354a521.83,521.83,0,0,0,197,38.33,521.82,521.82,0,0,0,197-38.33A520.28,520.28,0,0,0,748.37,239l3.63-3.63A15,15,0,0,0,752,214.15ZM211.86,326.41c-52.43-23.59-99.75-57.76-140.77-101.66,41-43.88,88.34-78.06,140.77-101.65A406.16,406.16,0,0,1,316,92a146.61,146.61,0,0,0,0,265.49A406.16,406.16,0,0,1,211.86,326.41ZM368.2,143.18a66.08,66.08,0,0,0-66,66,15,15,0,0,1-30,0,96.12,96.12,0,0,1,96-96,15,15,0,0,1,0,30ZM544.53,326.41A406,406,0,0,1,440.4,357.5,146.14,146.14,0,0,0,466.14,342a30.17,30.17,0,1,1,30.92-31.5A146.61,146.61,0,0,0,440.39,92a406.4,406.4,0,0,1,104.14,31.09C597,146.68,644.27,180.86,685.3,224.75,644.28,268.65,597,302.82,544.53,326.41Z"/><path class="cls-1" d="M15.54,147.34a16.25,16.25,0,0,0,22.27,2.07l.25-.2a14.84,14.84,0,0,0,2.14-21.44l-2.14-2.5A16.23,16.23,0,0,0,15.8,123.2l-.25.2a14.85,14.85,0,0,0-2.15,21.44Z"/><path class="cls-1" d="M76.54,102.85a16.17,16.17,0,0,0,21.74,5.06l.28-.16a14.91,14.91,0,0,0,5.25-20.94L102.06,84A16.19,16.19,0,0,0,80.31,79l-.27.17a14.9,14.9,0,0,0-5.26,20.93Z"/><path class="cls-1" d="M143.42,67.09a16.06,16.06,0,0,0,20.79,8l.29-.12a15,15,0,0,0,8.28-20l-1.33-3a16.05,16.05,0,0,0-20.78-8l-.3.12a15,15,0,0,0-8.27,20Z"/><path class="cls-1" d="M214.87,40.78c2.29,8.12,11,12.91,19.41,10.71l.31-.08a15.18,15.18,0,0,0,11.12-18.69l-.88-3.13c-2.29-8.11-11-12.91-19.41-10.7l-.31.08A15.17,15.17,0,0,0,214,37.66Z"/><path class="cls-1" d="M289.45,24.41c1.09,8.34,9,14.26,17.66,13.22l.32,0c8.67-1.05,14.82-8.67,13.73-17l-.42-3.21c-1.09-8.35-9-14.27-17.66-13.22l-.32,0c-8.67,1-14.82,8.66-13.73,17Z"/><path class="cls-1" d="M381.27,33.69h.32c8.73.13,15.92-6.59,16.05-15l.06-3.23C397.83,7.06,390.86.13,382.12,0h-.32c-8.73-.13-15.92,6.59-16.06,15l-.05,3.23C365.56,26.64,372.53,33.57,381.27,33.69Z"/><path class="cls-1" d="M455.25,39.75l.31,0c8.63,1.3,16.72-4.38,18.07-12.69l.52-3.2A15.31,15.31,0,0,0,461,6.51l-.32,0c-8.62-1.3-16.72,4.38-18.07,12.69l-.52,3.2A15.31,15.31,0,0,0,455.25,39.75Z"/><path class="cls-1" d="M527.6,55.71l.31.09a15.93,15.93,0,0,0,19.74-10.13l1-3.09a15.13,15.13,0,0,0-10.52-19l-.31-.09a15.93,15.93,0,0,0-19.74,10.13l-1,3.09A15.15,15.15,0,0,0,527.6,55.71Z"/><path class="cls-1" d="M596.94,81.31l.29.13a16.07,16.07,0,0,0,21-7.34l1.43-2.93a15,15,0,0,0-7.63-20.25l-.29-.13a16.07,16.07,0,0,0-21,7.34l-1.42,2.93A15,15,0,0,0,596.94,81.31Z"/><path class="cls-1" d="M661.8,116.08l.27.17a16.2,16.2,0,0,0,21.9-4.42l1.84-2.71A14.89,14.89,0,0,0,681.23,88l-.27-.17a16.2,16.2,0,0,0-21.9,4.41L657.22,95A14.89,14.89,0,0,0,661.8,116.08Z"/><path class="cls-1" d="M720.93,159.29l.24.2a16.23,16.23,0,0,0,22.32-1.41l2.22-2.43a14.85,14.85,0,0,0-1.47-21.5L744,134a16.24,16.24,0,0,0-22.32,1.41l-2.22,2.44A14.83,14.83,0,0,0,720.93,159.29Z"/></g></g></svg>