<svg xmlns="http://www.w3.org/2000/svg" viewBox="0 0 776.7 416.55"><defs><style>.cls-1{fill:#fff;}</style></defs><g id="Layer_2" data-name="Layer 2"><g id="Capa_1" data-name="Capa 1"><path class="cls-1" d="M208.18,255.05A180.18,180.18,0,0,1,308.44,93.54,521.7,521.7,0,0,0,18.18,240.81l-3.63,3.63a15,15,0,0,0,0,21.21l3.63,3.64a520.46,520.46,0,0,0,173.18,115,521,521,0,0,0,117.08,32.27A180.15,180.15,0,0,1,208.18,255.05Z"/><path class="cls-1" d="M758.52,240.81A521.7,521.7,0,0,0,468.26,93.54a180.21,180.21,0,0,1,0,323,521,521,0,0,0,117.08-32.27,520.36,520.36,0,0,0,173.18-115l3.63-3.64a15,15,0,0,0,0-21.21Z"/><path class="cls-1" d="M518.72,255.05A130.44,130.44,0,0,0,337.41,135a37.94,37.94,0,1,1-51.34,39.21,130.36,130.36,0,1,0,232.65,80.83Z"/><path class="cls-1" d="M51.1,175.82l.19-.14a8.76,8.76,0,0,0,1.08-13.21L17.5,126.33a10.75,10.75,0,0,0-13.9-1l-.15.11A8.07,8.07,0,0,0,2.36,137.8l35.77,37.06A9.89,9.89,0,0,0,51.1,175.82Z"/><path class="cls-1" d="M97.3,134.45A9.86,9.86,0,0,0,110,137.18l.36-.21a8.8,8.8,0,0,0,3.06-12.88L84.85,83.91c-2.91-4.08-9-5.3-13.59-2.73l-.17.09c-4.61,2.58-6,8-3.08,12Z"/><path class="cls-1" d="M162.45,102a9.74,9.74,0,0,0,12.26,4.48l.55-.21a8.9,8.9,0,0,0,5-12.27L158.47,50.53c-2.21-4.41-8-6.4-13-4.44l-.19.07c-5,2-7.22,7.12-5,11.52Z"/><path class="cls-1" d="M232.22,78.21a9.61,9.61,0,0,0,11.54,6.17l.7-.17a9,9,0,0,0,6.74-11.37L236.73,27c-1.46-4.65-6.9-7.36-12.14-6.06l-.19.05c-5.24,1.29-8.31,6.11-6.84,10.76Z"/><path class="cls-1" d="M305.16,63.58a9.45,9.45,0,0,0,10.58,7.76l.81-.09A9.17,9.17,0,0,0,324.86,61L318,13.64c-.7-4.78-5.64-8.16-11-7.54l-.2,0c-5.4.62-9.21,5-8.51,9.78Z"/><path class="cls-1" d="M389.16,65.69H390a9.33,9.33,0,0,0,9.67-8.91l.81-47.92c.09-4.82-4.26-8.79-9.7-8.87h-.2c-5.44-.07-9.92,3.78-10,8.6l-.82,47.88A9.3,9.3,0,0,0,389.16,65.69Z"/><path class="cls-1" d="M462.46,73.22l.79.11a9.49,9.49,0,0,0,10.81-7.43l8.59-47.51c.86-4.76-2.8-9.24-8.18-10l-.19,0c-5.38-.77-10.43,2.48-11.29,7.24l-8.52,47.12A9.14,9.14,0,0,0,462.46,73.22Z"/><path class="cls-1" d="M534.07,88.13l.67.18a9.64,9.64,0,0,0,11.72-5.81l16.27-46.12c1.63-4.6-1.27-9.5-6.46-10.94l-.19-.05c-5.2-1.44-10.73,1.12-12.35,5.73l-16,45.43A9,9,0,0,0,534.07,88.13Z"/><path class="cls-1" d="M602.48,112.06l.51.22a9.77,9.77,0,0,0,12.38-4.12L639.1,64.45c2.36-4.35.3-9.57-4.61-11.66l-.18-.08c-4.91-2.09-10.79-.26-13.15,4.09L597.91,99.64A8.87,8.87,0,0,0,602.48,112.06Z"/><path class="cls-1" d="M666.21,144.52l.32.2a9.87,9.87,0,0,0,12.81-2.36L710.06,102c3.05-4,1.86-9.43-2.65-12.13l-.17-.1a10.66,10.66,0,0,0-13.68,2.36l-30,39.38A8.79,8.79,0,0,0,666.21,144.52Z"/><path class="cls-1" d="M773.48,135.92l-.15-.12a10.75,10.75,0,0,0-13.92.59L723.3,171.58a8.77,8.77,0,0,0,.66,13.24l.15.12a9.91,9.91,0,0,0,13-.59l37-36.1A8.05,8.05,0,0,0,773.48,135.92Z"/></g></g></svg>