<svg xmlns="http://www.w3.org/2000/svg" viewBox="0 0 756.39 358.27"><defs><style>.cls-1{fill:#fff;}</style></defs><g id="Layer_2" data-name="Layer 2"><g id="Capa_1" data-name="Capa 1"><path class="cls-1" d="M752,180.09l-3.63-3.63q-8.8-8.81-18-17.13a14.53,14.53,0,0,0,1.23-1.25l2.13-2.43a15.3,15.3,0,0,0-1.41-21.5l-.23-.2a15.1,15.1,0,0,0-21.38,1.41l-2.12,2.44a13.66,13.66,0,0,0-1.27,1.7Q690.68,126,673,113.89a15,15,0,0,0,1.62-2.06l1.76-2.71A15.27,15.27,0,0,0,672,88l-.25-.17a15.11,15.11,0,0,0-21,4.41L649,95a15.68,15.68,0,0,0-1.37,2.63Q629.22,86.56,609.88,77a15.24,15.24,0,0,0,1.8-2.93l1.37-2.93a15.27,15.27,0,0,0-7.31-20.25l-.28-.13a15.11,15.11,0,0,0-20.14,7.34L584,61.06a15.33,15.33,0,0,0-1.13,3.58c-2.54-1.08-5.08-2.14-7.64-3.18q-16.27-6.59-32.85-12.06a15.14,15.14,0,0,0,1.73-3.73l.93-3.09a15.24,15.24,0,0,0-10.07-19l-.3-.09a15.14,15.14,0,0,0-18.91,10.13l-.93,3.09a15.05,15.05,0,0,0-.65,4.27q-21-5.64-42.34-9.5a15,15,0,0,0,1.37-4.36l.5-3.2A15.22,15.22,0,0,0,461,6.51l-.3,0a15.16,15.16,0,0,0-17.31,12.69l-.5,3.2a15.06,15.06,0,0,0,0,4.74q-21.57-2.65-43.44-3.53a15,15,0,0,0,.88-4.86l.05-3.23A15.19,15.19,0,0,0,385.5,0h-.3a15.2,15.2,0,0,0-15.39,15l0,3.23a15.32,15.32,0,0,0,.75,5q-21.94.31-43.63,2.42a15.07,15.07,0,0,0,.22-5l-.4-3.21A15.17,15.17,0,0,0,309.79,4.15l-.3,0a15.21,15.21,0,0,0-13.15,17l.4,3.21a15,15,0,0,0,1.44,4.8q-21.62,3.32-42.84,8.43a15.36,15.36,0,0,0-.5-4.92L254,29.59a15.14,15.14,0,0,0-18.59-10.7l-.3.08a15.23,15.23,0,0,0-10.65,18.69l.84,3.12a15.21,15.21,0,0,0,2,4.44Q206.5,51.48,186.15,59.5A15.32,15.32,0,0,0,185,54.93l-1.27-3a15.13,15.13,0,0,0-19.91-8l-.28.12a15.28,15.28,0,0,0-7.93,20l1.28,3A15.05,15.05,0,0,0,159.26,71q-19.78,9.09-38.66,19.76a15.4,15.4,0,0,0-1.68-3.91L117.24,84A15.11,15.11,0,0,0,96.42,79l-.27.17a15.27,15.27,0,0,0-5,20.93l1.68,2.77A15.49,15.49,0,0,0,95.33,106Q77.15,117.66,60,130.88a15.41,15.41,0,0,0-2-3.11l-2-2.5a15.1,15.1,0,0,0-21.33-2.07l-.24.2a15.29,15.29,0,0,0-2.06,21.44l2,2.5a15.65,15.65,0,0,0,2.45,2.37Q22,162.49,8,176.46l-3.63,3.63a15,15,0,0,0,0,21.21L8,204.94a520.25,520.25,0,0,0,173.19,115,521.67,521.67,0,0,0,197,38.34,521.65,521.65,0,0,0,197-38.34,520.25,520.25,0,0,0,173.19-115L752,201.3A15,15,0,0,0,752,180.09Zm-559.52,112A489.85,489.85,0,0,1,36.35,190.7,491.5,491.5,0,0,1,305.62,58.43a150.84,150.84,0,0,0,0,264.54A491.26,491.26,0,0,1,192.48,292.13ZM257.29,190.7a120.91,120.91,0,1,1,120.9,120.9A121,121,0,0,1,257.29,190.7ZM563.91,292.13A491.26,491.26,0,0,1,450.77,323a150.84,150.84,0,0,0,0-264.54A491.5,491.5,0,0,1,720,190.7,489.85,489.85,0,0,1,563.91,292.13Z"/><circle class="cls-1" cx="378.2" cy="190.7" r="72" transform="translate(-44.19 159.25) rotate(-22.5)"/></g></g></svg>