<svg xmlns="http://www.w3.org/2000/svg" viewBox="0 0 776.7 408.27"><defs><style>.cls-1{fill:#fff;}</style></defs><g id="Layer_2" data-name="Layer 2"><g id="Capa_1" data-name="Capa 1"><path class="cls-1" d="M382.5,123.61A117.09,117.09,0,1,0,499.59,240.7,117.09,117.09,0,0,0,382.5,123.61ZM356.2,231.85a26.31,26.31,0,1,1,26.3-26.31A26.3,26.3,0,0,1,356.2,231.85Z"/><path class="cls-1" d="M773.48,151.23l-.15-.14a9.85,9.85,0,0,0-13.92.67l-40.08,44.08a519.78,519.78,0,0,0-43.12-32.7L710.06,113a9.85,9.85,0,0,0-2.65-13.68l-.17-.11a9.85,9.85,0,0,0-13.68,2.66l-34,50.42a517.43,517.43,0,0,0-47.16-26.12L639.1,70.58a9.85,9.85,0,0,0-4.61-13.15l-.18-.09A9.85,9.85,0,0,0,621.16,62l-26.85,55.8q-7.35-3.24-14.83-6.29-17.52-7.09-35.41-12.9l18.66-59.65a9.84,9.84,0,0,0-6.46-12.34l-.19-.06A9.84,9.84,0,0,0,543.73,33L525,92.78a521.41,521.41,0,0,0-52.35-11.91l10-62.26a9.85,9.85,0,0,0-8.18-11.29l-.19,0A9.85,9.85,0,0,0,463,15.46L453,77.84a525.33,525.33,0,0,0-53.47-4.43l1-63.4a9.85,9.85,0,0,0-9.7-10h-.2a9.85,9.85,0,0,0-10,9.71l-1,63.44a529.43,529.43,0,0,0-53.55,3L318,13.25a9.85,9.85,0,0,0-11-8.51l-.2,0a9.85,9.85,0,0,0-8.51,11l8.11,62.83A518.6,518.6,0,0,0,253.73,89.1l-17-60.81a9.86,9.86,0,0,0-12.14-6.84l-.19.05a9.86,9.86,0,0,0-6.84,12.15l17,60.71q-24.83,7.31-49,17.1l-1.64.68-25.4-57.26a9.86,9.86,0,0,0-13-5l-.19.08a9.86,9.86,0,0,0-5,13L165.59,120a519.82,519.82,0,0,0-47.76,24.77l-33-52.26a9.85,9.85,0,0,0-13.59-3.08l-.17.11A9.85,9.85,0,0,0,68,103.16l32.84,52A521.25,521.25,0,0,0,57,186.57L17.5,140.41a9.87,9.87,0,0,0-13.9-1.09l-.15.13a9.87,9.87,0,0,0-1.09,13.9l39.27,45.92q-15.09,13-29.3,27.19L8.7,230.09a15,15,0,0,0,0,21.22l3.63,3.63a520.21,520.21,0,0,0,173.18,115,521.69,521.69,0,0,0,197,38.34,521.64,521.64,0,0,0,197-38.34,520.25,520.25,0,0,0,173.19-115l3.63-3.64a15,15,0,0,0,0-21.21l-3.63-3.63q-9-9-18.36-17.5l39.83-43.81A9.86,9.86,0,0,0,773.48,151.23ZM568.21,342.13A491.83,491.83,0,0,1,382.5,378.27a491.79,491.79,0,0,1-185.71-36.14A489.78,489.78,0,0,1,40.65,240.7a493,493,0,0,1,683.69,0A489.85,489.85,0,0,1,568.21,342.13Z"/></g></g></svg>