<svg xmlns="http://www.w3.org/2000/svg" viewBox="0 0 780.55 406.35"><defs><style>.cls-1{fill:#fff;}</style></defs><g id="Layer_2" data-name="Layer 2"><g id="Capa_1" data-name="Capa 1"><path class="cls-1" d="M378.2,138.31a100.06,100.06,0,0,0-45.82,11,37.94,37.94,0,1,1-48.6,55,100.49,100.49,0,1,0,94.42-66.05Z"/><path class="cls-1" d="M777.32,151.23l-.15-.14a9.85,9.85,0,0,0-13.92.67l-42.66,46.92a523.28,523.28,0,0,0-42.24-33L713.91,113a9.86,9.86,0,0,0-2.66-13.68l-.16-.11a9.85,9.85,0,0,0-13.68,2.66l-35.58,52.7a519.09,519.09,0,0,0-46.44-26.68L643,70.58a9.85,9.85,0,0,0-4.61-13.15l-.19-.09A9.85,9.85,0,0,0,625,62L597.46,119.2q-11-5.07-22.28-9.65Q561.55,104,547.69,99.29l18.89-60.38a9.85,9.85,0,0,0-6.47-12.34l-.19-.06A9.85,9.85,0,0,0,547.57,33L528.73,93.21a514.75,514.75,0,0,0-52.15-12.75l9.91-61.85a9.85,9.85,0,0,0-8.17-11.29l-.2,0a9.85,9.85,0,0,0-11.29,8.17L457,77.11a524.92,524.92,0,0,0-53.56-5.3l.93-61.8a9.86,9.86,0,0,0-9.7-10h-.21a9.85,9.85,0,0,0-10,9.71l-.93,61.54c-1.76,0-3.53,0-5.29,0q-24.48,0-48.63,2.23l-7.77-60.2a9.84,9.84,0,0,0-11-8.51l-.2,0a9.87,9.87,0,0,0-8.52,11l7.73,59.85a520.17,520.17,0,0,0-53.23,9.79l-16-57.15a9.86,9.86,0,0,0-12.14-6.84l-.2.05a9.87,9.87,0,0,0-6.84,12.15l15.87,56.78a522.7,522.7,0,0,0-51.51,17.31L162.32,54.88a9.87,9.87,0,0,0-13-5l-.18.08a9.85,9.85,0,0,0-5,13l23.26,52.45a521.8,521.8,0,0,0-48.77,24.54L88.69,92.54A9.85,9.85,0,0,0,75.1,89.46l-.17.11a9.85,9.85,0,0,0-3.07,13.59l29.65,47a518,518,0,0,0-44.95,31.44L21.34,140.41a9.85,9.85,0,0,0-13.89-1.09l-.16.13a9.86,9.86,0,0,0-1.08,13.9l34.89,40.8Q24,208.57,8,224.55l-3.63,3.63a15,15,0,0,0,0,21.21L8,253A520.26,520.26,0,0,0,181.21,368a521.68,521.68,0,0,0,197,38.33,521.63,521.63,0,0,0,197-38.33A520.4,520.4,0,0,0,748.37,253l3.63-3.64a15,15,0,0,0,0-21.21l-3.63-3.63q-6.4-6.41-13-12.54L778,165.15A9.84,9.84,0,0,0,777.32,151.23Zm-584.84,189A489.85,489.85,0,0,1,36.35,238.79,491.5,491.5,0,0,1,305.62,106.52a150.84,150.84,0,0,0,0,264.54A491.26,491.26,0,0,1,192.48,340.22Zm64.81-101.43A120.91,120.91,0,1,1,378.2,359.69,121,121,0,0,1,257.29,238.79ZM563.91,340.22a491.26,491.26,0,0,1-113.14,30.84,150.84,150.84,0,0,0,0-264.54A491.5,491.5,0,0,1,720,238.79,489.85,489.85,0,0,1,563.91,340.22Z"/></g></g></svg>