<svg xmlns="http://www.w3.org/2000/svg" viewBox="0 0 776.7 408.25"><defs><style>.cls-1{fill:#fff;}</style></defs><g id="Layer_2" data-name="Layer 2"><g id="Capa_1" data-name="Capa 1"><path class="cls-1" d="M381.58,119a121.75,121.75,0,0,0,0,243.49,120.64,120.64,0,0,0,86-35.67,122,122,0,0,0,35.78-86,119.16,119.16,0,0,0-37.93-88.47,15,15,0,0,0-20.55,21.86,89.47,89.47,0,0,1,28.48,66.43,92.21,92.21,0,0,1-27,65,90.85,90.85,0,0,1-64.73,26.86,91.75,91.75,0,0,1,0-183.49,15,15,0,1,0,0-30Z"/><circle class="cls-1" cx="381.58" cy="240.7" r="46.06" transform="translate(-38.63 76.5) rotate(-10.9)"/><path class="cls-1" d="M773.48,151.23l-.15-.14a9.85,9.85,0,0,0-13.92.67l-40.48,44.52a520.46,520.46,0,0,0-43-32.71L710.06,113a9.85,9.85,0,0,0-2.65-13.68l-.17-.11a9.85,9.85,0,0,0-13.68,2.66l-34.31,50.82a518.35,518.35,0,0,0-47-26.16l26.9-55.93a9.85,9.85,0,0,0-4.61-13.15l-.18-.09A9.85,9.85,0,0,0,621.16,62l-27,56.14q-7.73-3.44-15.58-6.63Q561.44,104.53,544,98.83l18.74-59.92a9.84,9.84,0,0,0-6.46-12.34l-.19-.06A9.84,9.84,0,0,0,543.73,33L525,93a518.71,518.71,0,0,0-52.3-12l10-62.42a9.85,9.85,0,0,0-8.18-11.29l-.19,0A9.85,9.85,0,0,0,463,15.46L453,78a525,525,0,0,0-53.45-4.52l1-63.43a9.85,9.85,0,0,0-9.7-10h-.2a9.85,9.85,0,0,0-10,9.71l-1,63.43A529.45,529.45,0,0,0,326.06,76L318,13.25a9.85,9.85,0,0,0-11-8.51l-.2,0a9.85,9.85,0,0,0-8.51,11l8.09,62.7a516.34,516.34,0,0,0-52.63,10.39l-16.94-60.6a9.86,9.86,0,0,0-12.14-6.84l-.19.05a9.86,9.86,0,0,0-6.84,12.15l16.89,60.46a527.31,527.31,0,0,0-49.86,17.35l-.86.36L158.47,54.88a9.86,9.86,0,0,0-13-5l-.19.08a9.86,9.86,0,0,0-5,13l25.17,56.73a519.85,519.85,0,0,0-47.86,24.72L84.85,92.54a9.85,9.85,0,0,0-13.59-3.08l-.17.11A9.85,9.85,0,0,0,68,103.16l32.58,51.62a516.61,516.61,0,0,0-44,31.36L17.5,140.41a9.87,9.87,0,0,0-13.9-1.09l-.15.13a9.86,9.86,0,0,0-1.08,13.9l38.87,45.46Q25.88,212,11.41,226.46l-3.63,3.63A15,15,0,1,0,29,251.31l3.63-3.64a493,493,0,0,1,690.8-7,491.1,491.1,0,0,1-134.34,92,491.85,491.85,0,0,1-160.84,43.4c-112.42,10.61-225.82-17.75-319.31-79.85a15,15,0,1,0-16.6,25,524.41,524.41,0,0,0,289.59,87c16.36,0,32.77-.77,49.14-2.32a521.61,521.61,0,0,0,170.63-46,521.93,521.93,0,0,0,150.06-105l3.63-3.63a15,15,0,0,0,0-21.22l-3.63-3.63q-8.76-8.76-17.85-17l40.24-44.27A9.86,9.86,0,0,0,773.48,151.23Z"/></g></g></svg>