<svg xmlns="http://www.w3.org/2000/svg" viewBox="0 0 776.7 407.48"><defs><style>.cls-1{fill:#fff;}</style></defs><g id="Layer_2" data-name="Layer 2"><g id="Capa_1" data-name="Capa 1"><path class="cls-1" d="M773.48,151.23l-.15-.14a9.85,9.85,0,0,0-13.92.67l-37.08,40.78a521.6,521.6,0,0,0-43.87-32.74L710.06,113a9.85,9.85,0,0,0-2.65-13.68l-.17-.11a9.85,9.85,0,0,0-13.68,2.66l-31.87,47.22a519.33,519.33,0,0,0-47.86-26L639.1,70.58a9.85,9.85,0,0,0-4.61-13.15l-.18-.09A9.85,9.85,0,0,0,621.16,62l-25.47,52.94q-5.15-2.22-10.35-4.34-20-8.11-40.48-14.51l17.87-57.13a9.84,9.84,0,0,0-6.46-12.34l-.19-.06A9.84,9.84,0,0,0,543.73,33l-18,57.48A517.16,517.16,0,0,0,473,79l9.68-60.42a9.85,9.85,0,0,0-8.18-11.29l-.19,0A9.85,9.85,0,0,0,463,15.46L453.26,76.2a529.83,529.83,0,0,0-53.72-3.86L400.49,10a9.87,9.87,0,0,0-9.71-10h-.2a9.85,9.85,0,0,0-10,9.71l-.95,62.59A527.34,527.34,0,0,0,326,75.89L318,13.25a9.85,9.85,0,0,0-11-8.51l-.2,0a9.85,9.85,0,0,0-8.51,11l8.11,62.8a520.23,520.23,0,0,0-52.44,11.07L236.73,28.29a9.86,9.86,0,0,0-12.14-6.84l-.19.05a9.86,9.86,0,0,0-6.84,12.15l17.18,61.49q-21.94,6.74-43.37,15.41-3.48,1.41-6.93,2.87l-26-58.54a9.86,9.86,0,0,0-13-5l-.19.08a9.86,9.86,0,0,0-5,13l26,58.56A521.73,521.73,0,0,0,119,146.66L84.85,92.54a9.85,9.85,0,0,0-13.59-3.08l-.17.11A9.85,9.85,0,0,0,68,103.16l34.13,54.08a520.07,520.07,0,0,0-43.25,31.58L17.5,140.41a9.87,9.87,0,0,0-13.9-1.09l-.15.13a9.86,9.86,0,0,0-1.08,13.9l41.31,48.32q-13.08,11.47-25.5,23.88l-3.63,3.63a15,15,0,0,0,21.21,21.21l3.63-3.63A491.85,491.85,0,0,1,281.22,113.88a166.54,166.54,0,0,0-13.29,12.52A164.73,164.73,0,0,0,222.25,245a166.73,166.73,0,0,0,51.36,116.42,162.53,162.53,0,0,0,113.76,46.05c2.32,0,4.66-.07,7-.16A521.37,521.37,0,0,0,583.2,369.88,520,520,0,0,0,758.52,254l3.63-3.64a15,15,0,0,0,0-21.21l-3.63-3.63q-10.32-10.32-21.12-20l36.74-40.41A9.86,9.86,0,0,0,773.48,151.23ZM572.05,342a491.93,491.93,0,0,1-175.24,35.24,15.66,15.66,0,0,0-1.68,0l-1,.05c-3.35,0-6.69.05-10.05,0h-.13c-.38,0-.74,0-1.11.06a132.84,132.84,0,0,1-88.4-37.56,136.93,136.93,0,0,1-42.19-95.59,136.21,136.21,0,1,1,272.39-3.8,15,15,0,0,0,15,14.93h.07a15,15,0,0,0,14.93-15.07A164.82,164.82,0,0,0,503,120.65c-2.46-2.35-5-4.6-7.57-6.78A491.81,491.81,0,0,1,730.2,239.79,489.87,489.87,0,0,1,572.05,342Z"/></g></g></svg>